<svg xmlns="http://www.w3.org/2000/svg" viewBox="0 0 64 64" role="img" aria-labelledby="title desc">
  <title id="title">NoxPawble logo</title>
  <desc id="desc">A neon green paw and ricochet orb mark on a black angular tile.</desc>
  <path fill="#020403" d="M8 1h48l7 7v48l-7 7H8l-7-7V8z"/>
  <path fill="none" stroke="#00ff66" stroke-width="2" d="M8 2h48l6 6v48l-6 6H8l-6-6V8z"/>
  <path fill="none" stroke="#00ff66" stroke-linecap="square" stroke-width="2" opacity=".58" d="M8 18V9h9M47 9h8v9M56 46v9h-9M17 55H8v-9"/>
  <circle cx="18" cy="24" r="5" fill="#00ff66"/>
  <circle cx="31" cy="18" r="5" fill="#00ff66"/>
  <circle cx="44" cy="24" r="5" fill="#00ff66"/>
  <path fill="#00ff66" d="M31 28c9.2 0 16 7.5 16 15.5 0 5.6-4.8 8.5-9.4 6.3L31 46.6l-6.6 3.2C19.8 52 15 49.1 15 43.5 15 35.5 21.8 28 31 28Z"/>
  <circle cx="31" cy="39" r="5.5" fill="#020403"/>
  <path fill="none" stroke="#00ff66" stroke-linecap="square" stroke-width="2" d="M5 39c3.5-1.3 6-4.2 7-8M48 14c4.8 2.4 8.3 6.5 10 11"/>
</svg>
